<?xml version="1.0" encoding="utf-8"?>
<!-- Generator: Adobe Illustrator 16.0.0, SVG Export Plug-In . SVG Version: 6.00 Build 0)  -->
<!DOCTYPE svg PUBLIC "-//W3C//DTD SVG 1.1//EN" "http://www.w3.org/Graphics/SVG/1.1/DTD/svg11.dtd">
<svg version="1.1" id="Layer_1" xmlns="http://www.w3.org/2000/svg" xmlns:xlink="http://www.w3.org/1999/xlink" x="0px" y="0px"
	 width="572.328px" height="135.694px" viewBox="0 0 572.328 135.694" enable-background="new 0 0 572.328 135.694"
	 xml:space="preserve">
<path fill-rule="evenodd" clip-rule="evenodd" fill="#33499B" d="M460.338,67.705v4.253c5.483-2.141-0.023,0.271,7.016-4.109
	l-0.497-3.79h0.408l24.295,0.547l-0.025,4.19l6.581-0.964l0.16-3.774h25.578l-0.153,3.196l4.696,0.699l-0.002-6.693l6.235-0.579
	l0.339-3.713h19.4l0.179,10.583l7.771-0.576l-0.324-3.929l10.333-0.196v29.114v3.231v40.498H0V95.196v-3.231V69.159l1.956,0.018
	l0.242,2.678l4.135,0.387v4.434l3.111-0.465L9.33,73.821l16.958,0.124l0.111,2.647l4.365,0.639l-0.018-2.773l16.374-0.371
	l-0.333,2.515c3.656,2.279,2.207,1.789,3.157,2.153c0-0.694-0.001-1.384-0.001-2.071c0-0.558,5.705,0,5.705-0.558
	c0-0.989,0-1.979,0-2.969l14.165,0.265l-0.217,2.606l5.15,0.381l0.12-7.015h12.857l0.226,2.46l4.133,0.387l-0.002,4.434l3.112-0.465
	l-0.1-2.117h16.951l0.103,2.5l4.365,0.639l-0.018-2.773l16.101-0.365h0.271l-0.329,2.509c4.814,3.003,0.773,1.2,5.024,2.874
	l0.053,7.533h5.71v-0.012c0.063,0.002,0.123,0.006,0.186,0.012h0.296v0.012c2.711,0.148,2.837,1.304,3.991,3.326
	c0.907-0.791,1.713-1.142,3.108-0.496l1.057,0.842l1.145-1.344c1.554,0.343,1.388,1.469,3.006,0.98l2.713-0.781l-0.357-1.713
	l8.688,0.428l0.445,2.432c2.063,0.183,3.432,0.306,5.236-0.002c1.029-0.277,1.087-0.33,2.05,0.215l0.155,0.107l-0.13-48.158
	l-0.219-4.898c0,0-0.285-2.007-1.895-2.178c-1.61-0.169-3.397-0.169-3.397-0.169l0.25-6.021l0.339-0.253l0.108-4.047l1.433-0.238
	c0,0-0.645-1.701-0.357-2.451c0.284-0.747,0.284-1.699,1.285-1.292c1.003,0.41,1.789,1.769,1.789,1.769l0.646-2.041l0.715-1.089
	l0.431-3.604v-0.954l-0.5-0.101l-0.362,1.325l-0.965-0.134l0.287-3.13l0.823,0.17l0.142,1.362l0.465-0.274l0.056-2.227l-1.002,0.169
	l0.284,0.374l-1.216-0.034l0.145-1.36l1.287-0.137v0.579l0.644-0.069V9.489l-0.572-0.035l-0.071,1.125h-0.5l-0.037-2.656
	l0.429,0.136l0.252,0.85l0.463-0.065l-0.249-3.368l-1.685,1.632l0.111-4.387l1.323,1.971l0.573-2.04L176.735,0l0.718,0.135
	l0.354,2.517c0,0,1.292,0.476,1.72,1.155c0.428,0.684,0.501,2.86-0.216,2.996c-0.715,0.135-1.432,0.951-1.432,0.951l0.145,0.68
	c0,0,1.146-1.393,1.503-0.848c0.357,0.542,0.428,2.38,0.106,2.583c-0.322,0.204-0.643,0.612-1.037,0.306
	c-0.395-0.306-0.572-0.342-0.572-0.342l0.286,4.459l0.5,0.169l0.217-0.851l0.394-0.068c0,0,0.464-0.036,0.643,0.068
	c0.18,0.102,0.786,0.577,0.786,0.577l-0.144,0.988l-1.036,0.407l-0.643-0.341l-0.431-0.235l-0.322,0.169l0.465,4.592l0.071,2.449
	l0.717,0.305h0.608c0,0,0.125-0.696,0.981-0.696c0.862,0,1.11-0.034,1.11-0.034s-0.287-1.294,0.574-1.36
	c0.858-0.068,1.467,0.849,1.608,1.054c0.142,0.205,0.464,1.157,0.464,1.359c0,0.206-0.248,1.021-0.248,1.021l-0.466,0.853
	l1.036,0.305l0.072,4.728l0.501,0.206l0.035,4.931l-2.699,0.323c0,0-2.471,0.443-2.434,2.652c0.034,2.211,1.179,40.032,1.179,40.032
	l0.629,11.784c0.255-0.12,0.367-0.204,1.179-0.01c0.466-1.026-0.128-0.361,0.625-1.682l0.196-1.109
	c2.406,0.608-0.556-1.51,3.657,1.373c0.788,0.537,0.993,0.484,2.62-0.033l-1.627-1.452c1.487-0.594,1.017-0.021,2.138-2.132
	l2.205,0.242c0.776-0.784,0.7-0.76,1.847-1.154c0.896-0.303,0.067-0.264,1.091-0.199c0.046,0.001,0.154,0.03,0.203,0.037
	l0.662,0.127c1.179,0.12,1.555-0.075,1.852,0.07l0.08-11.875c6.416-2.526,0.314,0.191,7.583-4.332l-0.497-3.79h0.409l24.291,0.547
	l-0.023,4.19l6.582-0.964l0.158-3.774h25.579l-0.153,3.196l4.695,0.699l-0.004-6.693l6.237-0.579l0.339-3.713h19.4l0.184,10.583
	l7.768-0.576l-0.328-3.929l21.373-0.401c0,1.495,0,2.988,0,4.48c0,0.84,8.607,0,8.607,0.84c0,1.037,0,2.079-0.003,3.126
	c1.436-0.55-0.754,0.19,4.765-3.243l-0.499-3.8l24.702,0.558l-0.022,4.19l6.581-0.964l0.167-3.997l25.59-0.187l-0.174,3.605
	l4.694,0.699l-0.002-6.693l6.236-0.579l0.37-4.039l14.586-0.131l4.776,0.043l0.188,10.996l7.771-0.576l-0.328-3.929l21.373-0.401
	c0,1.495,0,2.988,0,4.48C452.179,67.851,458.569,67.326,460.338,67.705L460.338,67.705z"/>
</svg>
